<?xml version="1.0" encoding="iso-8859-1"?>
<!-- Uploaded to: SVG Repo, www.svgrepo.com, Generator: SVG Repo Mixer Tools -->
<svg fill="#000000" height="800px" width="800px" version="1.1" id="Layer_1" xmlns="http://www.w3.org/2000/svg" xmlns:xlink="http://www.w3.org/1999/xlink" 
	 viewBox="0 0 477.364 477.364" xml:space="preserve">
<g>
	<g>
		<path d="M469.086,245.109h-24c-4.416,0-8,3.576-8,8c0,4.424,3.584,8,8,8h24c4.416,0,8-3.576,8-8S473.502,245.109,469.086,245.109z
			"/>
	</g>
</g>
<g>
	<g>
		<path d="M413.086,245.109h-8c-4.416,0-8,3.576-8,8c0,4.424,3.584,8,8,8h8c4.416,0,8-3.576,8-8S417.502,245.109,413.086,245.109z"
			/>
	</g>
</g>
<g>
	<g>
		<path d="M421.086,37.109h-24c-4.416,0-8,3.576-8,8s3.584,8,8,8h24c4.416,0,8-3.576,8-8S425.502,37.109,421.086,37.109z"/>
	</g>
</g>
<g>
	<g>
		<path d="M260.878,340.197c-1.808-4.04-6.544-5.872-10.56-4.048c-14.496,6.456-30.864,11.192-43.968,12.696l-3.376,0.496
			c-1.856,0.272-3.6,0.528-4.824,0.664l-12.896,0.616c-4.416,0.2-7.824,3.2-7.624,7.608c0.2,4.288,3.736,6.88,7.984,6.88
			c0.128,0,0.256,0,0.376,0l13.352,0.096c1.848-0.184,3.84-0.104,5.968-0.416l3.032-0.256c14.456-1.656,32.576-6.784,48.472-13.864
			C260.862,348.869,262.678,344.237,260.878,340.197z"/>
	</g>
</g>
<g>
	<g>
		<path d="M364.702,178.101c0.064-13.56-3.032-31.576-8.48-49.48c-4.824-16.752-13.24-31.632-21.984-45.816l-9.672-13.128
			c-2.728-3.32-4.464-5.056-4.464-5.056c-3.104-3.12-8.16-3.136-11.296-0.048c-3.136,3.104-3.176,8.144-0.096,11.288
			c0.128,0.136,1.456,1.512,3.224,3.648l9.04,12.256c5.24,8.52,14.992,24.4,19.904,41.48c5.032,16.544,7.88,32.936,7.848,45.68
			c0.36,4.216,0.152,7.968-0.04,11.272c-0.08,1.36-0.152,2.608-0.168,3.528l-0.288,4.504c-0.208,4.432,3.192,6.88,7.608,6.88
			c0.128,0,0.256,0,0.392,0c4.24,0,7.776-1.824,7.984-6.104l0.296-5.456c0.024-0.96,0.088-1.648,0.152-2.816
			C364.87,187.085,365.126,182.733,364.702,178.101z"/>
	</g>
</g>
<g>
	<g>
		<path d="M137.19,344.429l-9.992-3.256c-6.336-1.968-15.208-5.904-24.92-11.064c-23.568-12.808-46.104-33.944-60.336-56.608
			c-7.552-11.784-13.848-25.408-18.632-40.248c-4-13.936-6.384-27.16-6.912-38.52c-0.752-9.288-0.232-17.344,0.176-23.816
			l1.736-14.08c0.632-4.376-2.4-8.44-6.776-9.064c-4.328-0.696-8.424,2.392-9.064,6.768l-1.64,11.56l-0.232,3.784
			c-0.424,6.616-1.008,15.688-0.176,25.856c0.584,12.304,3.176,26.8,7.592,42.168c5.28,16.4,12.168,31.272,20.424,44.16
			c15.584,24.832,40.336,48.04,66.272,62.144c10.784,5.72,20.376,9.952,27.48,12.16l5.672,1.984l5.424,1.592
			c0.656,0.168,1.312,0.24,1.96,0.24c3.576,0,6.84-2.424,7.752-6.056C144.078,349.853,141.478,345.509,137.19,344.429z"/>
	</g>
</g>
<g>
	<g>
		<path d="M301.766,46.309l-1.776-1.592c-1.512-1.536-3.4-2.912-5.792-4.664l-4.68-3.44c-2.168-1.608-4.576-3.4-7.712-5.512
			l-14.368-8.472c-25.832-13.744-58.84-21.456-88.224-20.8c-14.496,0.088-29.8,2.376-48.568,7.344
			c-15.968,5.168-29.112,10.864-38.736,16.728c-8.6,4.664-15.216,9.672-20.528,13.688c-1.504,1.144-2.888,2.184-4.168,3.104
			c-0.24,0.176-0.472,0.368-0.696,0.56l-8.128,7.352c-3.28,2.96-3.528,8.024-0.568,11.296c1.584,1.744,3.752,2.632,5.936,2.632
			c1.912,0,3.832-0.68,5.36-2.072l7.8-7.048c1.272-0.92,2.64-1.952,4.112-3.064c4.888-3.696,10.968-8.296,18.84-12.576
			c8.904-5.408,20.92-10.584,35.28-15.248c17.008-4.488,31.04-6.608,44.312-6.688c26.792-0.704,56.952,6.416,80.152,18.752
			l13.616,8.024c2.504,1.704,4.736,3.36,6.736,4.848l4.776,3.504c1.648,1.2,3,2.136,4.168,3.288l2.152,1.944
			c3.288,2.952,8.344,2.696,11.304-0.592C305.318,54.317,305.054,49.261,301.766,46.309z"/>
	</g>
</g>
<g>
	<g>
		<path d="M36.046,89.237c-3.8-2.248-8.704-0.992-10.96,2.808l-3.088,5.224c-0.904,1.408-1.624,2.904-2.536,4.888l-0.832,1.8
			c-1.848,4.016-0.096,8.768,3.912,10.624c1.088,0.504,2.224,0.744,3.352,0.744c3.016,0,5.912-1.72,7.264-4.64l0.8-1.744
			c0.016-0.032,0.36-0.776,0.376-0.808c0.304-0.656,0.64-1.456,1.28-2.456l3.24-5.48C41.102,96.397,39.854,91.485,36.046,89.237z"/>
	</g>
</g>
<g>
	<g>
		<path d="M347.678,242.285c-4-1.848-8.768-0.096-10.616,3.912l-5.336,11.576c-1.848,4.016-0.096,8.768,3.92,10.616
			c1.08,0.496,2.224,0.736,3.344,0.736c3.024,0,5.92-1.728,7.272-4.648l5.336-11.576
			C353.438,248.893,351.686,244.141,347.678,242.285z"/>
	</g>
</g>
<g>
	<g>
		<path d="M280.542,86.133c-26.2-26.2-61.04-40.632-98.096-40.632c-37.056,0-71.896,14.432-98.096,40.632
			c-26.2,26.192-40.632,61.032-40.632,98.096c0,37.056,14.432,71.888,40.632,98.096c27.04,27.048,62.568,40.56,98.096,40.56
			s71.048-13.512,98.096-40.56c26.2-26.208,40.632-61.048,40.632-98.096C321.174,147.165,306.742,112.333,280.542,86.133z
			 M269.23,271.005c-47.864,47.856-125.72,47.848-173.568,0c-23.176-23.176-35.944-54-35.944-86.784s12.768-63.6,35.944-86.784
			c23.176-23.184,54-35.944,86.784-35.944s63.6,12.768,86.784,35.944c23.184,23.176,35.944,54,35.944,86.784
			S292.406,247.821,269.23,271.005z"/>
	</g>
</g>
<g>
	<g>
		<path d="M465.67,407.309l-31.592-31.584l-22.624-22.624l-73.536-73.536c-3.128-3.128-8.184-3.128-11.312,0l-45.256,45.256
			c-3.128,3.128-3.128,8.184,0,11.312l73.536,73.536l22.632,22.624l31.584,31.584c7.8,7.8,18.04,11.696,28.28,11.696
			c10.248,0,20.488-3.896,28.288-11.696C481.262,448.285,481.262,422.901,465.67,407.309z M298.31,330.477l33.944-33.944
			l62.224,62.224l-33.944,33.944L298.31,330.477z M371.846,404.013l33.944-33.944l11.312,11.312l-16.968,16.976l-16.968,16.976
			L371.846,404.013z M454.35,452.573c-9.36,9.36-24.584,9.36-33.944,0l-25.928-25.928l16.968-16.976l16.968-16.976l25.928,25.928
			C463.702,427.981,463.702,443.213,454.35,452.573z"/>
	</g>
</g>
<g>
	<g>
		<path d="M182.374,124.469c-55.96,0-99.792,28.696-99.792,65.32c0,36.624,43.832,65.32,99.792,65.32
			c55.96,0,99.792-28.696,99.792-65.32S238.334,124.469,182.374,124.469z M182.374,239.109c-45.424,0-83.792-22.584-83.792-49.32
			c0-26.736,38.368-49.32,83.792-49.32c45.416,0,83.792,22.584,83.792,49.32S227.79,239.109,182.374,239.109z"/>
	</g>
</g>
<g>
	<g>
		<path d="M183.198,152.069c-20.328,0-36.864,16.536-36.864,36.864s16.536,36.856,36.864,36.856s36.864-16.528,36.864-36.856
			S203.526,152.069,183.198,152.069z M183.198,209.797c-11.504,0-20.864-9.36-20.864-20.856c0-11.504,9.36-20.864,20.864-20.864
			c11.504,0,20.864,9.36,20.864,20.864C204.062,200.437,194.702,209.797,183.198,209.797z"/>
	</g>
</g>
<g>
	<g>
		<path d="M365.086,37.109h-8c-4.416,0-8,3.576-8,8s3.584,8,8,8h8c4.416,0,8-3.576,8-8S369.502,37.109,365.086,37.109z"/>
	</g>
</g>
<g>
	<g>
		<path d="M125.086,397.109h-24c-4.416,0-8,3.576-8,8s3.584,8,8,8h24c4.416,0,8-3.576,8-8S129.502,397.109,125.086,397.109z"/>
	</g>
</g>
<g>
	<g>
		<path d="M69.086,397.109h-8c-4.416,0-8,3.576-8,8s3.584,8,8,8h8c4.416,0,8-3.576,8-8S73.502,397.109,69.086,397.109z"/>
	</g>
</g>
<g>
	<g>
		<path d="M317.086,445.109h-24c-4.416,0-8,3.576-8,8s3.584,8,8,8h24c4.416,0,8-3.576,8-8S321.502,445.109,317.086,445.109z"/>
	</g>
</g>
<g>
	<g>
		<path d="M261.086,445.109h-8c-4.416,0-8,3.576-8,8s3.584,8,8,8h8c4.416,0,8-3.576,8-8S265.502,445.109,261.086,445.109z"/>
	</g>
</g>
</svg>