<?xml version="1.0" encoding="iso-8859-1"?>
<!-- Uploaded to: SVG Repo, www.svgrepo.com, Generator: SVG Repo Mixer Tools -->
<svg fill="#000000" height="800px" width="800px" version="1.1" id="Layer_1" xmlns="http://www.w3.org/2000/svg" xmlns:xlink="http://www.w3.org/1999/xlink" 
	 viewBox="0 0 512 512" xml:space="preserve">
<g>
	<g>
		<path d="M42.765,423.593c-10.944-0.006-21.894,4.166-30.245,12.516c-16.693,16.693-16.693,43.757-0.001,60.448
			c16.691,16.69,43.754,16.692,60.447,0c8.344-8.347,12.516-19.284,12.516-30.225l0.002-42.742L42.765,423.593z"/>
	</g>
</g>
<g>
	<g>
		<path d="M419.151,192.658L512,99.809L415.115,2.924l-92.849,92.847l-12.11-12.109c-16.175-16.175-37.68-25.083-60.553-25.083
			s-44.38,8.908-60.553,25.083l-28.26,28.256l72.664,72.664L112.348,305.688c-12.94,12.94-20.066,30.144-20.066,48.445
			c0,18.3,7.127,35.504,20.067,48.442c12.939,12.94,30.144,20.066,48.443,20.066c0.001,0,0,0,0.001,0
			c18.297,0,35.502-7.127,48.44-20.066L330.34,281.469l72.663,72.663l28.258-28.259c16.174-16.174,25.082-37.678,25.082-60.552
			c0-22.873-8.907-44.378-25.082-60.552L419.151,192.658z M185.012,378.354c-6.469,6.471-15.071,10.033-24.22,10.033
			c-9.15,0-17.753-3.564-24.223-10.034c-6.469-6.468-10.033-15.071-10.033-24.221c0-9.15,3.564-17.753,10.033-24.221
			l121.107-121.107l48.443,48.443L185.012,378.354z M407.04,301.653l-4.036,4.035l-193.771-193.77l4.037-4.036
			c9.704-9.704,22.607-15.049,36.331-15.049c13.724,0,26.628,5.345,36.332,15.049l36.331,36.331l92.849-92.847l48.443,48.443
			l-92.848,92.848l36.331,36.331c9.704,9.705,15.049,22.608,15.049,36.331C422.089,279.044,416.744,291.948,407.04,301.653z"/>
	</g>
</g>
</svg>